<svg height="512pt" viewBox="0 -4 512 512" width="512pt" xmlns="http://www.w3.org/2000/svg"><path d="m190.367188 135.660156c-8.972657 8.648438-14.5625 20.746094-14.5625 34.125 0 26.214844 21.429687 47.542969 47.777343 47.542969 21.425781 0 39.601563-14.109375 45.644531-33.480469 5.535157 2.238282 11.578126 3.480469 17.914063 3.480469 26.34375 0 47.777344-21.328125 47.777344-47.542969 0-16.601562-8.605469-31.234375-21.601563-39.738281 27.898438-18.039063 46.402344-49.421875 46.402344-85.046875 0-8.285156-6.714844-15-15-15-27.03125 0-52.445312 10.527344-71.558594 29.640625-12.882812 12.882813-21.859375 28.632813-26.34375 45.808594-2.792968-3.96875-5.925781-7.734375-9.425781-11.238281-15.902344-15.898438-37.042969-24.65625-59.53125-24.65625h-10.578125c-8.285156 0-15 6.714843-15 15v10.574218c-.003906 29.324219 14.890625 55.421875 38.085938 70.53125zm25.808593-50.234375c9.140625 9.140625 14.613281 20.96875 15.679688 33.699219-1.484375-.125-2.957031-.308594-4.414063-.550781-24.640625-4.125-42.921875-24.289063-44.96875-48.828125 12.734375 1.066406 24.5625 6.539062 33.703125 15.679687zm111.476563-53.359375c-6.3125 25.578125-26.488282 45.75-52.0625 52.066406 6.3125-25.574218 26.488281-45.75 52.0625-52.066406zm-22.734375 107.71875c0 9.675782-7.976563 17.542969-17.78125 17.542969-9.800781 0-17.777344-7.867187-17.777344-17.542969 0-9.671875 7.976563-17.539062 17.777344-17.539062 9.804687 0 17.78125 7.867187 17.78125 17.539062zm-81.335938 47.542969c-9.804687 0-17.777343-7.867187-17.777343-17.542969 0-9.671875 7.972656-17.539062 17.777343-17.539062 9.804688 0 17.777344 7.867187 17.777344 17.539062 0 9.675782-7.972656 17.542969-17.777344 17.542969zm0 0"/><path d="m15 159.894531h115.109375c8.285156 0 15-6.71875 15-15 0-8.285156-6.714844-15-15-15h-115.109375c-8.285156 0-15 6.714844-15 15 0 8.28125 6.714844 15 15 15zm0 0"/><path d="m381.597656 159.894531h115.402344c8.285156 0 15-6.71875 15-15 0-8.285156-6.714844-15-15-15h-115.402344c-8.285156 0-15 6.714844-15 15 0 8.28125 6.714844 15 15 15zm0 0"/><path d="m77.121094 236.378906h-60.992188c-8.28125 0-15 6.714844-15 15 0 8.28125 6.71875 15 15 15h15.496094v68.925782c0 8.285156 6.714844 15 15 15s15-6.714844 15-15v-68.925782h15.496094c8.285156 0 15-6.71875 15-15 0-8.285156-6.714844-15-15-15zm0 0"/><path d="m265.105469 246.089844c-2.417969-5.40625-7.78125-8.882813-13.699219-8.882813-.03125 0-.066406 0-.101562 0-5.953126.039063-11.320313 3.597657-13.675782 9.070313l-35.761718 83.101562c-3.277344 7.605469.238281 16.429688 7.847656 19.707032 1.933594.832031 3.945312 1.226562 5.921875 1.226562 5.8125 0 11.34375-3.398438 13.785156-9.074219l1.914063-4.449219h41.417968l2.070313 4.636719c3.378906 7.5625 12.246093 10.957031 19.8125 7.578125 7.5625-3.378906 10.957031-12.25 7.582031-19.8125zm-20.859375 60.699218 7.414062-17.230468 7.695313 17.230468zm0 0"/><path d="m130.832031 335.308594v-16.816406h31.34375v16.816406c0 8.28125 6.71875 15 15 15 8.285157 0 15-6.71875 15-15v-83.429688c0-8.285156-6.714843-15-15-15-8.28125 0-15 6.714844-15 15v36.613282h-31.34375v-36.613282c0-8.285156-6.714843-15-15-15-8.28125 0-15 6.714844-15 15v83.429688c0 8.28125 6.71875 15 15 15 8.285157 0 15-6.71875 15-15zm0 0"/><path d="m339.09375 335.3125v-40.679688l39.234375 49.945313c2.898437 3.691406 7.28125 5.734375 11.800781 5.734375 1.636719 0 3.289063-.265625 4.898438-.824219 6.042968-2.089843 10.097656-7.78125 10.097656-14.175781l-.003906-84.054688c0-8.285156-6.714844-15-15-15-8.28125 0-15 6.714844-15 15v40.679688l-39.234375-49.945312c-3.949219-5.027344-10.652344-7-16.699219-4.910157-6.042969 2.089844-10.097656 7.78125-10.097656 14.175781v84.054688c0 8.285156 6.71875 15 15 15 8.285156 0 15.003906-6.714844 15.003906-15zm0 0"/><path d="m486.96875 275.425781 16.285156-11.320312c6.796875-4.722657 8.484375-14.058594 3.769532-20.863281-4.714844-6.800782-14.050782-8.496094-20.859376-3.792969l-26.445312 18.28125c-.445312.308593-.867188.636719-1.269531.984375l-10.183594 7.078125v-14.351563c0-8.285156-6.714844-15-15-15s-15 6.714844-15 15v83.429688c0 8.277344 6.707031 14.992187 14.984375 15h.015625c8.273437 0 14.984375-6.695313 15-14.96875l.066406-32.621094 13.527344-9.402344 20.851563 47.628906c3.324218 7.589844 12.167968 11.046876 19.757812 7.726563 7.589844-3.324219 11.046875-12.167969 7.726562-19.757813zm0 0"/><path d="m195.15625 391.785156c-6.632812-4.96875-16.03125-3.621094-21 3.007813l-20.304688 27.089843-20.300781-27.089843c-4.96875-6.628907-14.371093-7.976563-21-3.007813-6.628906 4.972656-7.976562 14.371094-3.007812 21l29.308593 39.105469v35.828125c0 8.285156 6.714844 15 15 15 8.285157 0 15-6.714844 15-15v-35.824219l29.308594-39.105469c4.96875-6.632812 3.625-16.035156-3.003906-21.003906zm0 0"/><path d="m253.492188 388.171875c-12.738282-.097656-25.101563 4.820313-33.90625 13.546875-8.351563 8.273438-12.953126 19.183594-12.953126 30.71875v26.160156c0 24.496094 20.898438 44.613282 46.582032 44.847656h.441406c12.589844 0 24.765625-4.921874 33.46875-13.546874 8.351562-8.273438 12.949219-19.183594 12.949219-30.71875v-26.160157c.003906-24.492187-20.894531-44.609375-46.582031-44.847656zm16.585937 71.007813c0 4.449218-2.210937 7.574218-4.066406 9.410156-3.121094 3.09375-7.613281 4.855468-12.347657 4.855468-.058593 0-.113281 0-.171874 0-9.296876-.085937-16.859376-6.746093-16.859376-14.847656v-26.15625c0-4.449218 2.210938-7.574218 4.066407-9.414062 3.121093-3.089844 7.613281-4.855469 12.34375-4.855469h.175781c9.296875.085937 16.859375 6.746094 16.859375 14.847656zm0 0"/><path d="m392.453125 388.355469c-8.285156 0-15 6.714843-15 15v55.824219c0 4.449218-2.210937 7.574218-4.066406 9.410156-3.160157 3.128906-7.71875 4.871094-12.519531 4.855468-9.296876-.085937-16.859376-6.746093-16.859376-14.847656v-55.824218c0-8.285157-6.714843-15-15-15-8.28125 0-15 6.714843-15 15v55.824218c0 24.496094 20.898438 44.613282 46.585938 44.847656.148438 0 .292969.003907.441406.003907 12.585938 0 24.765625-4.925781 33.46875-13.546875 8.347656-8.273438 12.949219-19.1875 12.949219-30.722656v-55.824219c0-8.285157-6.714844-15-15-15zm0 0"/></svg>